<?xml version="1.0" encoding="UTF-8"?><svg id="Layer_1" xmlns="http://www.w3.org/2000/svg" viewBox="0 0 120 120"><defs><style>.cls-1{stroke:#2453ff;}.cls-1,.cls-2,.cls-3{fill:none;stroke-miterlimit:10;stroke-width:2px;}.cls-2{stroke:#0c322c;}.cls-3{stroke:#2daa6b;}.cls-4{fill:#0c322c;stroke-width:0px;}</style></defs><line class="cls-2" x1="12.12" y1="98.54" x2="36.09" y2="98.54"/><line class="cls-2" x1="37.22" y1="98.54" x2="54.73" y2="98.54"/><line class="cls-2" x1="55.65" y1="98.54" x2="73.15" y2="98.54"/><rect class="cls-2" x="12.12" y="90.91" width="101.36" height="15.25"/><circle class="cls-4" cx="99.08" cy="98.54" r="2.12"/><circle class="cls-4" cx="105.9" cy="98.54" r="2.12"/><rect class="cls-3" x="23.61" y="33.01" width="25.13" height="51.11"/><polyline class="cls-3" points="53.85 47.62 53.85 28.42 28.72 28.42"/><line class="cls-3" x1="27.07" y1="37.05" x2="30.18" y2="37.05"/><line class="cls-3" x1="34.13" y1="37.05" x2="45.27" y2="37.05"/><line class="cls-3" x1="27.07" y1="42.43" x2="30.18" y2="42.43"/><line class="cls-3" x1="34.13" y1="42.43" x2="45.27" y2="42.43"/><line class="cls-3" x1="27.07" y1="47.8" x2="30.18" y2="47.8"/><line class="cls-3" x1="34.13" y1="47.8" x2="45.27" y2="47.8"/><line class="cls-3" x1="27.07" y1="53.18" x2="30.18" y2="53.18"/><line class="cls-3" x1="34.13" y1="53.18" x2="45.27" y2="53.18"/><line class="cls-3" x1="27.07" y1="58.56" x2="30.18" y2="58.56"/><line class="cls-3" x1="34.13" y1="58.56" x2="45.27" y2="58.56"/><line class="cls-3" x1="27.07" y1="64.78" x2="45.27" y2="64.78"/><rect class="cls-3" x="27.57" y="69.37" width="17.7" height="10.38"/><path class="cls-1" d="m47.72,22.44c0-4.75,3.85-8.6,8.6-8.6h39.58c4.75,0,8.6,3.85,8.6,8.6v8.6h0c4.75,0,8.6,3.85,8.6,8.6v6.88h-48.72"/><polyline class="cls-2" points="52.06 66.33 81.31 66.33 81.31 30.19"/><circle class="cls-4" cx="81.31" cy="30.19" r="4.08"/></svg>