<?xml version="1.0" encoding="UTF-8"?><svg id="Layer_1" xmlns="http://www.w3.org/2000/svg" xmlns:xlink="http://www.w3.org/1999/xlink" viewBox="0 0 120 120"><defs><style>.cls-1{stroke:url(#linear-gradient-2);}.cls-1,.cls-2,.cls-3,.cls-4{fill:none;stroke-miterlimit:10;stroke-width:2px;}.cls-2{stroke:#0c322c;}.cls-3{stroke:#2daa6b;}.cls-4{stroke:url(#linear-gradient);}.cls-5{fill:#2daa6b;}.cls-5,.cls-6{stroke-width:0px;}.cls-6{fill:#0c322c;}</style><linearGradient id="linear-gradient" x1="33.53" y1="40.59" x2="88.71" y2="40.59" gradientUnits="userSpaceOnUse"><stop offset="0" stop-color="#2daa6b"/><stop offset=".49" stop-color="#ff7c3f"/><stop offset="1" stop-color="#2453ff"/></linearGradient><linearGradient id="linear-gradient-2" y1="28.05" y2="28.05" xlink:href="#linear-gradient"/></defs><line class="cls-2" x1="10.67" y1="94.62" x2="34.64" y2="94.62"/><line class="cls-2" x1="35.77" y1="94.62" x2="53.28" y2="94.62"/><line class="cls-2" x1="54.2" y1="94.62" x2="71.7" y2="94.62"/><rect class="cls-2" x="10.67" y="87" width="101.36" height="15.25"/><circle class="cls-6" cx="97.63" cy="94.62" r="2.12"/><circle class="cls-6" cx="104.45" cy="94.62" r="2.12"/><polygon class="cls-2" points="97.44 63.87 62.14 63.87 22.56 63.87 22.56 17.75 97.44 17.75 97.44 63.87"/><line class="cls-2" x1="62.14" y1="78.17" x2="62.14" y2="63.87"/><line class="cls-2" x1="44.83" y1="78.17" x2="79.45" y2="78.17"/><rect class="cls-3" x="34.62" y="48.29" width="53.18" height="8.75"/><rect class="cls-4" x="34.53" y="36.97" width="53.18" height="7.23"/><rect class="cls-1" x="34.53" y="24.43" width="53.18" height="7.23"/><circle class="cls-5" cx="79.68" cy="52.67" r="1.23"/><circle class="cls-5" cx="83.63" cy="52.67" r="1.23"/></svg>