<?xml version="1.0" encoding="UTF-8"?><svg id="Layer_1" xmlns="http://www.w3.org/2000/svg" viewBox="0 0 120 120"><defs><style>.cls-1,.cls-2,.cls-3{stroke-miterlimit:10;}.cls-1,.cls-2,.cls-3,.cls-4,.cls-5,.cls-6{fill:none;stroke-width:2px;}.cls-1,.cls-4{stroke:#0c322c;}.cls-2,.cls-6{stroke:#2daa6b;}.cls-3,.cls-5{stroke:#ff7c3f;}.cls-4,.cls-5,.cls-6{stroke-linejoin:round;}.cls-7{fill:#0c322c;stroke-width:0px;}</style></defs><line class="cls-1" x1="9.32" y1="103.35" x2="33.29" y2="103.35"/><line class="cls-1" x1="34.42" y1="103.35" x2="51.93" y2="103.35"/><line class="cls-1" x1="52.85" y1="103.35" x2="70.35" y2="103.35"/><rect class="cls-1" x="9.32" y="95.73" width="101.36" height="15.25"/><circle class="cls-7" cx="96.28" cy="103.35" r="2.12"/><circle class="cls-7" cx="103.11" cy="103.35" r="2.12"/><line class="cls-1" x1="20.81" y1="80.88" x2="63.77" y2="80.88"/><line class="cls-1" x1="93.5" y1="80.88" x2="101.41" y2="80.88"/><rect class="cls-1" x="14.49" y="73.25" width="91.02" height="15.25"/><rect class="cls-2" x="9.32" y="44.06" width="101.36" height="17.03"/><line class="cls-2" x1="15.52" y1="52.57" x2="74.43" y2="52.57"/><line class="cls-3" x1="85.16" y1="52.57" x2="104.48" y2="52.57"/><line class="cls-2" x1="22.93" y1="69.98" x2="22.93" y2="63.44"/><line class="cls-1" x1="60" y1="69.98" x2="60" y2="63.44"/><line class="cls-3" x1="97.07" y1="69.98" x2="97.07" y2="63.44"/><line class="cls-2" x1="22.93" y1="41.59" x2="22.93" y2="35.05"/><line class="cls-1" x1="60" y1="41.59" x2="60" y2="35.05"/><line class="cls-3" x1="97.07" y1="41.59" x2="97.07" y2="35.05"/><polygon class="cls-6" points="26.7 14.49 32.17 14.49 26.7 9.02 26.7 14.49"/><polygon class="cls-2" points="26.7 9.02 13.69 9.02 13.69 31.85 32.17 31.85 32.17 14.49 26.7 9.02"/><polygon class="cls-4" points="63.77 14.49 69.24 14.49 63.77 9.02 63.77 14.49"/><polygon class="cls-1" points="63.77 9.02 50.76 9.02 50.76 31.85 69.24 31.85 69.24 14.49 63.77 9.02"/><polygon class="cls-5" points="100.84 14.49 106.31 14.49 100.84 9.02 100.84 14.49"/><polygon class="cls-3" points="100.84 9.02 87.83 9.02 87.83 31.85 106.31 31.85 106.31 14.49 100.84 9.02"/></svg>