<?xml version="1.0" encoding="UTF-8"?><svg id="Layer_1" xmlns="http://www.w3.org/2000/svg" viewBox="0 0 120 120"><defs><style>.cls-1{font-family:Poppins-Medium, Poppins;font-size:16.16px;font-weight:500;}.cls-1,.cls-2{fill:#0c322c;}.cls-3{fill:none;stroke:#0c322c;stroke-miterlimit:10;stroke-width:2px;}.cls-4{fill:#2daa6b;}.cls-4,.cls-2{stroke-width:0px;}</style></defs><line class="cls-3" x1="39.53" y1="105.71" x2="79.33" y2="105.71"/><rect class="cls-3" x="9.32" y="100.84" width="101.36" height="9.74"/><rect class="cls-4" x="89.97" y="104.15" width="15.81" height="3.11"/><rect class="cls-4" x="13.08" y="104.15" width="15.81" height="3.11"/><line class="cls-3" x1="39.53" y1="90.89" x2="79.33" y2="90.89"/><rect class="cls-3" x="9.32" y="86.02" width="101.36" height="9.74"/><rect class="cls-4" x="89.97" y="89.34" width="15.81" height="3.11"/><rect class="cls-4" x="13.08" y="89.34" width="15.81" height="3.11"/><line class="cls-3" x1="39.53" y1="76.07" x2="79.33" y2="76.07"/><rect class="cls-3" x="9.32" y="71.2" width="101.36" height="9.74"/><rect class="cls-4" x="89.97" y="74.52" width="15.81" height="3.11"/><rect class="cls-4" x="13.08" y="74.52" width="15.81" height="3.11"/><rect class="cls-3" x="45" y="24.97" width="28.05" height="28.05"/><polyline class="cls-3" points="45 29.71 36.16 29.71 36.16 24.97"/><polyline class="cls-3" points="45 38.99 27.47 38.99 27.47 45.43"/><line class="cls-3" x1="44.52" y1="49.26" x2="36.24" y2="49.26"/><circle class="cls-2" cx="36.16" cy="24.46" r="2.29"/><circle class="cls-2" cx="57.92" cy="15.12" r="2.29"/><circle class="cls-2" cx="67.66" cy="18.29" r="2.29"/><circle class="cls-2" cx="85.8" cy="35.68" r="2.29"/><circle class="cls-2" cx="47.3" cy="61.16" r="2.29"/><circle class="cls-2" cx="65.48" cy="57.78" r="2.29"/><circle class="cls-2" cx="82.65" cy="41.87" r="2.29"/><circle class="cls-2" cx="92.53" cy="46.31" r="2.29"/><circle class="cls-2" cx="27.47" cy="45.1" r="2.29"/><circle class="cls-2" cx="36.16" cy="49.26" r="2.29"/><text class="cls-1" transform="translate(50.55 45.43)"><tspan x="0" y="0">AI</tspan></text><polyline class="cls-3" points="52.89 24.97 52.89 15.12 58.37 15.12"/><polyline class="cls-3" points="73.05 30.56 85.8 30.56 85.8 36.21"/><line class="cls-3" x1="73.96" y1="42.21" x2="82.65" y2="42.21"/><polyline class="cls-3" points="73.52 51.55 92.53 51.55 92.53 46.31"/><polyline class="cls-3" points="53.75 52.5 53.75 61.16 46.04 61.16"/><line class="cls-3" x1="65.48" y1="53.02" x2="65.48" y2="57.78"/><line class="cls-3" x1="67.66" y1="24.97" x2="67.66" y2="19.27"/><polyline class="cls-3" points="23.18 9.42 16.02 9.42 16.02 16.58"/><polyline class="cls-3" points="96.82 9.42 103.98 9.42 103.98 16.58"/><polyline class="cls-3" points="23.18 63.65 16.02 63.65 16.02 56.49"/><polyline class="cls-3" points="96.82 63.65 103.98 63.65 103.98 56.49"/></svg>