<?xml version="1.0" encoding="UTF-8"?><svg id="Layer_1" xmlns="http://www.w3.org/2000/svg" xmlns:xlink="http://www.w3.org/1999/xlink" viewBox="0 0 120 120"><defs><style>.cls-1{stroke:url(#linear-gradient-2);}.cls-1,.cls-2,.cls-3,.cls-4,.cls-5{fill:none;stroke-miterlimit:10;stroke-width:2px;}.cls-2{stroke:#2453ff;}.cls-3{stroke:#0c322c;}.cls-4{stroke:#2daa6b;}.cls-5{stroke:url(#linear-gradient);}.cls-6{fill:#2daa6b;}.cls-6,.cls-7,.cls-8{stroke-width:0px;}.cls-7{fill:#0c322c;}.cls-8{fill:#2453ff;}</style><linearGradient id="linear-gradient" x1="12.27" y1="48.52" x2="106.12" y2="48.52" gradientUnits="userSpaceOnUse"><stop offset="0" stop-color="#90ebcd"/><stop offset="1" stop-color="#2453ff"/></linearGradient><linearGradient id="linear-gradient-2" y1="27.27" y2="27.27" xlink:href="#linear-gradient"/></defs><line class="cls-3" x1="9.32" y1="91.12" x2="33.29" y2="91.12"/><line class="cls-3" x1="34.42" y1="91.12" x2="51.93" y2="91.12"/><line class="cls-3" x1="52.85" y1="91.12" x2="70.35" y2="91.12"/><rect class="cls-3" x="9.32" y="83.5" width="101.36" height="15.25"/><circle class="cls-7" cx="96.28" cy="91.12" r="2.12"/><circle class="cls-7" cx="103.11" cy="91.12" r="2.12"/><polyline class="cls-4" points="50.43 62.56 104.79 62.56 104.79 77.66 12.94 77.66 12.94 70.65"/><polyline class="cls-5" points="59.2 54.53 105.12 54.53 105.12 42.51 13.27 42.51 13.27 46.11"/><polygon class="cls-1" points="13.27 24.85 13.27 21.25 105.12 21.25 105.12 33.28 59.2 33.28 13.27 33.28 13.27 24.85"/><polygon class="cls-2" points="17.88 47.78 59.7 47.78 39.7 67.78 17.88 67.78 17.88 47.78"/><circle class="cls-8" cx="24.88" cy="57.41" r="1.5"/><circle class="cls-8" cx="32.42" cy="57.41" r="1.5"/><circle class="cls-8" cx="39.96" cy="57.41" r="1.5"/><circle class="cls-6" cx="90.75" cy="70.11" r="2.12"/><circle class="cls-6" cx="97.58" cy="70.11" r="2.12"/></svg>