<?xml version="1.0" encoding="UTF-8"?><svg id="Layer_1" xmlns="http://www.w3.org/2000/svg" viewBox="0 0 120 120"><defs><style>.cls-1{stroke:#2453ff;}.cls-1,.cls-2,.cls-3,.cls-4{fill:none;stroke-miterlimit:10;stroke-width:2px;}.cls-2{stroke:#0c322c;}.cls-3{stroke:#30b978;}.cls-4{stroke:#2daa6b;}.cls-5{fill:#0c322c;stroke-width:0px;}</style></defs><polyline class="cls-2" points="39.32 63.71 101.89 63.71 101.89 76.01 39.43 76.01"/><circle class="cls-5" cx="90.27" cy="69.86" r="1.71"/><circle class="cls-5" cx="95.78" cy="69.86" r="1.71"/><line class="cls-4" x1="9.32" y1="99.41" x2="109.58" y2="99.41"/><line class="cls-4" x1="9.32" y1="91.79" x2="109.58" y2="91.79"/><rect class="cls-2" x="9.32" y="84.03" width="101.36" height="23"/><g id="lock"><g id="lock-2"><rect id="Rectangle_2" class="cls-2" x="18.11" y="63.14" width="16.69" height="14.25" rx=".6" ry=".6"/><circle id="Ellipse_1" class="cls-5" cx="26.46" cy="69.04" r="2.04"/><path id="Path_2" class="cls-2" d="m30.53,63.14v-4.07c0-2.25-1.82-4.07-4.07-4.07s-4.07,1.82-4.07,4.07v4.07h8.14Z"/></g></g><polygon class="cls-3" points="72.18 22.95 64.4 12.97 56.61 22.95 56.01 23.72 49.95 17.86 42.16 25.4 34.38 32.93 48.82 32.93 49.95 32.93 64.4 32.93 65.52 32.93 79.97 32.93 72.18 22.95"/><polyline class="cls-1" points="22.39 52.13 22.39 39.55 46.36 39.55 46.36 58.11 34.8 58.11"/><line class="cls-1" x1="28.21" y1="43.1" x2="28.21" y2="51"/><line class="cls-1" x1="34.38" y1="43.1" x2="34.38" y2="54.56"/><line class="cls-1" x1="40.54" y1="43.1" x2="40.54" y2="54.56"/><path class="cls-1" d="m59.19,56.61h-3.5v-5.23c0-2.41,1.95-4.36,4.36-4.36h.87v-2.62c0-2.41,1.95-4.36,4.36-4.36h20.06c2.41,0,4.36,1.95,4.36,4.36v4.36h0c2.41,0,4.36,1.95,4.36,4.36v3.49h-34.88"/></svg>