<?xml version="1.0" encoding="UTF-8"?><svg id="Layer_1" xmlns="http://www.w3.org/2000/svg" xmlns:xlink="http://www.w3.org/1999/xlink" viewBox="0 0 120 120"><defs><style>.cls-1{clip-path:url(#clippath);}.cls-2,.cls-3,.cls-4,.cls-5,.cls-6,.cls-7,.cls-8{fill:none;}.cls-2,.cls-9{stroke-width:0px;}.cls-10{clip-path:url(#clippath-1);}.cls-3{stroke:#2453ff;}.cls-3,.cls-4,.cls-5,.cls-6,.cls-7,.cls-8{stroke-miterlimit:10;stroke-width:2px;}.cls-4{stroke:#0c322c;}.cls-5{stroke:#192072;}.cls-6{stroke:#90ebcd;}.cls-7{stroke:#2daa6b;}.cls-8{stroke:#ff7c3f;}.cls-9{fill:#30ba78;}</style><clipPath id="clippath"><rect class="cls-2" x="-5.33" width="130.65" height="119.76"/></clipPath><clipPath id="clippath-1"><rect class="cls-2" x="-5.33" width="130.65" height="119.76"/></clipPath></defs><line class="cls-8" x1="8.4" y1="86.49" x2="43.13" y2="86.49"/><line class="cls-6" x1="8.4" y1="93.69" x2="66.42" y2="93.69"/><line class="cls-4" x1="49.06" y1="86.49" x2="74.19" y2="86.49"/><line class="cls-7" x1="82.28" y1="86.49" x2="111.6" y2="86.49"/><line class="cls-3" x1="8.4" y1="108.09" x2="43.13" y2="108.09"/><line class="cls-4" x1="49.06" y1="108.09" x2="83.91" y2="108.09"/><line class="cls-7" x1="82.28" y1="108.09" x2="111.6" y2="108.09"/><line class="cls-5" x1="8.4" y1="100.89" x2="43.13" y2="100.89"/><line class="cls-8" x1="43.13" y1="100.89" x2="68.25" y2="100.89"/><line class="cls-8" x1="82.28" y1="100.89" x2="111.6" y2="100.89"/><line class="cls-3" x1="66.42" y1="93.69" x2="91.55" y2="93.69"/><line class="cls-7" x1="94.85" y1="93.69" x2="111.6" y2="93.69"/><g id="SUSE_Logo-vert_L_Green-pos_sRGB"><g class="cls-1"><g class="cls-10"><path class="cls-9" d="m75.87,54.34c.44.64.81,1.25,1.02,1.86.15.44.33,1.01.76,1.24.03.01.05.02.07.03.79.29,2.82.24,2.82.24h3.73c.32,0,3.12,0,3.05-.32-.34-1.5-2.07-1.77-3.39-2.55-1.22-.73-2.37-1.55-2.9-2.96-.27-.73-.11-2.42.36-3.03.34-.44.85-.74,1.39-.86.6-.13,1.22-.02,1.83.04.74.08,1.47.21,2.21.3,1.43.19,2.87.26,4.31.22,2.38-.07,4.76-.45,7.01-1.21,1.57-.53,3.12-1.24,4.46-2.23,1.52-1.13,1.12-1.02-.42-.87-1.85.19-3.71.22-5.56.11-1.73-.1-3.43-.3-4.99-1.11-1.23-.63-2.29-1.27-3.26-2.25-.15-.15-.24-.58.03-.86.26-.27.81-.11.98.03,1.7,1.42,4.24,2.59,6.86,2.72,1.42.07,2.8.1,4.22.03.71-.03,1.78-.03,2.49-.03.37,0,1.37.1,1.56-.29.06-.11.05-.25.05-.37-.21-5.68-.63-12.1-6.58-14.81-4.44-2.03-11.09-5.17-13.9-6.48-.65-.31-1.41.18-1.41.91,0,1.9.1,4.63.1,7.11-1.35-1.37-3.61-2.24-5.34-3.03-1.96-.9-3.99-1.66-6.05-2.3-4.15-1.29-8.45-2.08-12.76-2.51-4.9-.49-9.88-.25-14.7.74-7.94,1.65-15.75,5.47-21.68,11.05-3.64,3.43-6.49,8.3-6.69,13.25-.28,7,1.69,10.76,5.29,14.63,5.75,6.17,18.12,7.04,23.13-.28,2.25-3.3,2.74-7.77,1.11-11.41-1.63-3.64-5.4-6.27-9.38-6.41-3.1-.1-6.39,1.47-7.58,4.33-.9,2.18-.39,4.88,1.26,6.58.64.66,1.51,1.2,2.46.99.56-.12,1.03-.54,1.11-1.11.12-.84-.61-1.38-1.06-2.02-.81-1.16-.65-2.9.37-3.89.86-.83,2.13-1.08,3.33-1.08,1.11,0,2.25.2,3.21.76,1.35.79,2.25,2.25,2.56,3.79.93,4.6-2.81,8.33-7.88,8.63-2.59.15-5.23-.53-7.25-2.16-5.12-4.12-6.38-12.55-.52-17.05,5.56-4.27,12.58-3.17,16.72-.95,3.31,1.78,5.78,4.68,7.65,7.89.94,1.61,1.74,3.3,2.48,5.02.71,1.65,1.38,3.31,2.81,4.52.95.8,2.11.77,3.35.77h7.07c.96,0,.73-.64.31-1.06-.94-.96-2.29-1.18-3.53-1.52-2.85-.78-2.56-4.56-1.77-4.56,2.55,0,2.63.08,4.86.05,3.22-.04,4.2-.23,6.72.7,1.35.5,2.64,1.82,3.49,3.02m26.04-20.8c.91,3.87-2.57,7.35-6.44,6.44-1.97-.46-3.53-2.02-3.99-3.99-.91-3.87,2.57-7.34,6.43-6.43,1.97.46,3.53,2.02,4,3.99m-2.28,3.16c-.48.32-1.12.32-1.59,0-.78-.52-.86-1.6-.23-2.23.56-.58,1.48-.58,2.05,0,.63.63.55,1.72-.23,2.24"/></g></g></g></svg>