<?xml version="1.0" encoding="UTF-8"?><svg id="Layer_1" xmlns="http://www.w3.org/2000/svg" viewBox="0 0 120 120"><defs><style>.cls-1{stroke:#0c322c;}.cls-1,.cls-2,.cls-3{fill:none;stroke-miterlimit:10;stroke-width:2px;}.cls-2{stroke:#192072;}.cls-3{stroke:#2daa6b;}.cls-4{fill:#0c322c;stroke-width:0px;}</style></defs><line class="cls-1" x1="10.67" y1="102.87" x2="34.64" y2="102.87"/><line class="cls-1" x1="35.77" y1="102.87" x2="53.28" y2="102.87"/><line class="cls-1" x1="54.2" y1="102.87" x2="71.7" y2="102.87"/><rect class="cls-1" x="10.67" y="95.24" width="101.36" height="15.25"/><circle class="cls-4" cx="97.63" cy="102.87" r="2.12"/><circle class="cls-4" cx="104.45" cy="102.87" r="2.12"/><rect class="cls-2" x="69.95" y="7.33" width="26.32" height="36.96"/><line class="cls-2" x1="69.95" y1="13.19" x2="96.26" y2="13.19"/><line class="cls-2" x1="72.5" y1="19.73" x2="84.5" y2="19.73"/><line class="cls-2" x1="93.11" y1="19.73" x2="87.61" y2="19.73"/><line class="cls-2" x1="72.5" y1="24.58" x2="84.5" y2="24.58"/><line class="cls-2" x1="93.11" y1="24.58" x2="87.61" y2="24.58"/><line class="cls-2" x1="72.5" y1="29.43" x2="84.5" y2="29.43"/><line class="cls-2" x1="93.11" y1="29.43" x2="87.61" y2="29.43"/><line class="cls-2" x1="72.5" y1="34.27" x2="84.5" y2="34.27"/><line class="cls-2" x1="93.11" y1="34.27" x2="87.61" y2="34.27"/><line class="cls-2" x1="72.5" y1="39.12" x2="84.5" y2="39.12"/><line class="cls-2" x1="93.11" y1="39.12" x2="87.61" y2="39.12"/><rect class="cls-2" x="69.95" y="50.64" width="26.32" height="36.96"/><line class="cls-2" x1="69.95" y1="56.51" x2="96.26" y2="56.51"/><line class="cls-2" x1="72.5" y1="63.05" x2="84.5" y2="63.05"/><line class="cls-2" x1="93.11" y1="63.05" x2="87.61" y2="63.05"/><line class="cls-2" x1="72.5" y1="67.9" x2="84.5" y2="67.9"/><line class="cls-2" x1="93.11" y1="67.9" x2="87.61" y2="67.9"/><line class="cls-2" x1="72.5" y1="72.74" x2="84.5" y2="72.74"/><line class="cls-2" x1="93.11" y1="72.74" x2="87.61" y2="72.74"/><line class="cls-2" x1="72.5" y1="77.59" x2="84.5" y2="77.59"/><line class="cls-2" x1="93.11" y1="77.59" x2="87.61" y2="77.59"/><line class="cls-2" x1="72.5" y1="82.44" x2="84.5" y2="82.44"/><line class="cls-2" x1="93.11" y1="82.44" x2="87.61" y2="82.44"/><polyline class="cls-3" points="48.31 44.5 59.42 44.5 59.42 25.81 67.04 25.81"/><polyline class="cls-3" points="48.31 50.43 59.42 50.43 59.42 69.12 67.04 69.12"/><rect class="cls-2" x="19.14" y="28.99" width="26.32" height="36.96"/><line class="cls-2" x1="19.14" y1="34.85" x2="45.45" y2="34.85"/><line class="cls-2" x1="21.69" y1="41.39" x2="33.69" y2="41.39"/><line class="cls-2" x1="42.3" y1="41.39" x2="36.8" y2="41.39"/><line class="cls-2" x1="21.69" y1="46.24" x2="33.69" y2="46.24"/><line class="cls-2" x1="42.3" y1="46.24" x2="36.8" y2="46.24"/><line class="cls-2" x1="21.69" y1="51.09" x2="33.69" y2="51.09"/><line class="cls-2" x1="42.3" y1="51.09" x2="36.8" y2="51.09"/><line class="cls-2" x1="21.69" y1="55.93" x2="33.69" y2="55.93"/><line class="cls-2" x1="42.3" y1="55.93" x2="36.8" y2="55.93"/><line class="cls-2" x1="21.69" y1="60.78" x2="33.69" y2="60.78"/><line class="cls-2" x1="42.3" y1="60.78" x2="36.8" y2="60.78"/></svg>