<?xml version="1.0" encoding="UTF-8"?><svg id="Layer_1" xmlns="http://www.w3.org/2000/svg" xmlns:xlink="http://www.w3.org/1999/xlink" viewBox="0 0 120 120"><defs><style>.cls-1{stroke:url(#linear-gradient-2);}.cls-1,.cls-2,.cls-3,.cls-4,.cls-5,.cls-6{fill:none;stroke-miterlimit:10;stroke-width:2px;}.cls-2{stroke:#0c322c;}.cls-3{stroke:#30ba78;}.cls-4{stroke:#2daa6b;}.cls-5{stroke:#fe7c3f;}.cls-6{stroke:url(#linear-gradient);}.cls-7{fill:#0c322c;}.cls-7,.cls-8{stroke-width:0px;}.cls-8{fill:#30ba78;}</style><linearGradient id="linear-gradient" x1="5.86" y1="86.05" x2="54.92" y2="86.05" gradientUnits="userSpaceOnUse"><stop offset="0" stop-color="#2daa6b"/><stop offset=".49" stop-color="#ff7c3f"/><stop offset="1" stop-color="#2453ff"/></linearGradient><linearGradient id="linear-gradient-2" x1="63.74" x2="112.81" xlink:href="#linear-gradient"/></defs><line class="cls-2" x1="5.09" y1="98.79" x2="17.37" y2="98.79"/><line class="cls-2" x1="17.95" y1="98.79" x2="26.92" y2="98.79"/><line class="cls-2" x1="27.39" y1="98.79" x2="36.36" y2="98.79"/><rect class="cls-2" x="5.09" y="94.88" width="51.94" height="7.81"/><circle class="cls-7" cx="49.65" cy="98.79" r="1.09"/><circle class="cls-7" cx="53.15" cy="98.79" r="1.09"/><rect class="cls-6" x="6.86" y="82.85" width="47.06" height="6.4"/><line class="cls-2" x1="62.97" y1="98.79" x2="75.26" y2="98.79"/><line class="cls-2" x1="75.84" y1="98.79" x2="84.81" y2="98.79"/><line class="cls-2" x1="85.28" y1="98.79" x2="94.25" y2="98.79"/><rect class="cls-2" x="62.97" y="94.88" width="51.94" height="7.81"/><circle class="cls-7" cx="107.53" cy="98.79" r="1.09"/><circle class="cls-7" cx="111.03" cy="98.79" r="1.09"/><rect class="cls-1" x="64.74" y="82.85" width="47.06" height="6.4"/><rect class="cls-2" x="34.19" y="13.67" width="48.01" height="35.91"/><polyline class="cls-4" points="59.03 56.03 59.03 61.25 31.06 61.25 31.06 76.72"/><polyline class="cls-4" points="59.03 52.69 59.03 61.25 87.01 61.25 87.01 76.72"/><line class="cls-5" x1="49.39" y1="27.11" x2="57.09" y2="27.11"/><line class="cls-5" x1="50.04" y1="30.54" x2="60.76" y2="30.54"/><line class="cls-5" x1="50.6" y1="33.9" x2="63.58" y2="33.9"/><circle class="cls-8" cx="55.41" cy="43.16" r="1.84"/><circle class="cls-8" cx="62.87" cy="43.16" r="1.84"/><polyline class="cls-3" points="45.09 18.25 47.97 18.25 51.45 40.71 72.97 40.71"/><polygon class="cls-3" points="69.45 37.5 51 37.5 49.02 23.57 72.28 23.57 69.45 37.5"/></svg>