<?xml version="1.0" encoding="UTF-8"?><svg id="Layer_1" xmlns="http://www.w3.org/2000/svg" viewBox="0 0 120 120"><defs><style>.cls-1{stroke:#2453ff;}.cls-1,.cls-2,.cls-3,.cls-4{fill:none;stroke-miterlimit:10;stroke-width:2px;}.cls-2{stroke:#0c322c;}.cls-3{stroke:#2daa6b;}.cls-4{stroke:#ff7c3f;}.cls-5{fill:#2daa6b;}.cls-5,.cls-6{stroke-width:0px;}.cls-6{fill:#0c322c;}</style></defs><line class="cls-2" x1="10.67" y1="90.33" x2="34.64" y2="90.33"/><line class="cls-2" x1="35.77" y1="90.33" x2="53.28" y2="90.33"/><line class="cls-2" x1="54.2" y1="90.33" x2="71.7" y2="90.33"/><rect class="cls-2" x="10.67" y="82.71" width="101.36" height="15.25"/><circle class="cls-6" cx="97.63" cy="90.33" r="2.12"/><circle class="cls-6" cx="104.45" cy="90.33" r="2.12"/><rect class="cls-3" x="14.29" y="61.77" width="91.85" height="15.11"/><rect class="cls-4" x="16.59" y="42.22" width="38.56" height="12.49"/><rect class="cls-1" x="64.79" y="42.22" width="38.56" height="12.49"/><rect class="cls-2" x="16.59" y="22.04" width="38.56" height="12.49"/><rect class="cls-3" x="64.79" y="22.04" width="38.56" height="12.49"/><circle class="cls-5" cx="92.1" cy="69.32" r="2.12"/><circle class="cls-5" cx="98.93" cy="69.32" r="2.12"/><line class="cls-2" x1="16.59" y1="28.29" x2="39.62" y2="28.29"/><line class="cls-2" x1="44" y1="28.29" x2="52.33" y2="28.29"/><line class="cls-4" x1="16.59" y1="48.15" x2="39.62" y2="48.15"/><line class="cls-4" x1="44" y1="48.15" x2="52.33" y2="48.15"/><line class="cls-1" x1="64.79" y1="48.15" x2="87.82" y2="48.15"/><line class="cls-1" x1="92.2" y1="48.15" x2="100.53" y2="48.15"/><line class="cls-3" x1="64.79" y1="28.29" x2="87.82" y2="28.29"/><line class="cls-3" x1="92.2" y1="28.29" x2="100.53" y2="28.29"/></svg>